<svg width="18" height="21" viewBox="0 0 18 21" fill="none" xmlns="http://www.w3.org/2000/svg">
<path fill-rule="evenodd" clip-rule="evenodd" d="M17.1418 9.1796L17.9117 15.1692C18.4827 19.0789 16.2119 20.6688 13.1621 20.6688H4.8727C1.81392 20.6688 -0.526906 19.5688 0.103048 15.1692L0.882991 9.1796C1.00298 8.28967 1.43295 7.45973 2.1029 6.84977C2.61386 6.40081 3.27282 6.15982 3.95277 6.15982V5.92984C3.87277 4.07998 4.8237 2.3301 6.42259 1.38017C8.02247 0.430242 10.0223 0.430242 11.6222 1.38017C13.2221 2.3301 14.162 4.07998 14.092 5.92984V6.15982C15.3519 6.15982 16.6818 7.03976 17.1418 9.1796ZM5.47255 5.92983C5.47255 3.98997 7.05243 2.41009 9.00229 2.41009C10.9622 2.41009 12.542 3.98997 12.542 5.92983V6.15082H5.47255V5.92983ZM5.2026 10.2595C5.2026 10.7395 5.60257 11.1395 6.09253 11.1395C6.5825 11.1395 6.97247 10.7395 6.97247 10.2595C6.97247 9.76957 6.5825 9.3796 6.09253 9.3796C5.60257 9.3796 5.2026 9.76957 5.2026 10.2595ZM11.8922 11.1395C12.1221 11.1395 12.3521 11.0495 12.5121 10.8795C12.6821 10.7195 12.7721 10.4895 12.7721 10.2595C12.7721 9.76957 12.3721 9.3796 11.8922 9.3796C11.4032 9.3796 11.0022 9.76957 11.0022 10.2595C11.0022 10.7395 11.4032 11.1395 11.8922 11.1395Z" fill="#2F3367"/>
</svg>
