<svg width="20" height="20" viewBox="0 0 20 20" fill="none" xmlns="http://www.w3.org/2000/svg">
<path fill-rule="evenodd" clip-rule="evenodd" d="M3.33325 2.5C1.95254 2.5 0.833252 3.61929 0.833252 5V15C0.833252 16.3807 1.95254 17.5 3.33325 17.5H16.6666C18.0473 17.5 19.1666 16.3807 19.1666 15V5C19.1666 3.61929 18.0473 2.5 16.6666 2.5H3.33325ZM5.53343 6.0265C5.17986 5.73187 4.65439 5.77964 4.35975 6.1332C4.06512 6.48676 4.11289 7.01224 4.46645 7.30687L8.39948 10.5844C9.32659 11.357 10.6733 11.357 11.6004 10.5844L15.5334 7.30687C15.887 7.01224 15.9348 6.48676 15.6401 6.1332C15.3455 5.77964 14.82 5.73187 14.4665 6.0265L10.5334 9.30402C10.2244 9.56156 9.77549 9.56156 9.46645 9.30403L5.53343 6.0265Z" fill="#2F3367"/>
</svg>
