<svg width="24" height="24" viewBox="0 0 24 24" fill="none" xmlns="http://www.w3.org/2000/svg">
<circle cx="12" cy="12" r="12" fill="white"/>
<path d="M12.0003 6.44629C10.4921 6.44629 10.3028 6.45288 9.71039 6.47984C9.11917 6.50692 8.71561 6.60052 8.3625 6.73786C7.99723 6.87971 7.68739 7.06946 7.37871 7.37827C7.06979 7.68697 6.88004 7.99682 6.73773 8.36197C6.60005 8.71521 6.50634 9.1189 6.47973 9.70991C6.45323 10.3023 6.44629 10.4917 6.44629 12C6.44629 13.5083 6.453 13.697 6.47984 14.2894C6.50703 14.8807 6.60063 15.2842 6.73785 15.6373C6.87981 16.0026 7.06956 16.3125 7.37836 16.6212C7.68693 16.9301 7.99677 17.1203 8.3618 17.2622C8.71515 17.3995 9.11882 17.4931 9.70993 17.5202C10.3023 17.5471 10.4915 17.5537 11.9996 17.5537C13.508 17.5537 13.6967 17.5471 14.2891 17.5202C14.8803 17.4931 15.2843 17.3995 15.6376 17.2622C16.0028 17.1203 16.3122 16.9301 16.6207 16.6212C16.9297 16.3125 17.1194 16.0026 17.2617 15.6375C17.3982 15.2842 17.492 14.8805 17.5197 14.2895C17.5463 13.6971 17.5533 13.5083 17.5533 12C17.5533 10.4917 17.5463 10.3024 17.5197 9.71002C17.492 9.11878 17.3982 8.71521 17.2617 8.36209C17.1194 7.99682 16.9297 7.68697 16.6207 7.37827C16.3118 7.06935 16.0029 6.87959 15.6373 6.73786C15.2833 6.60052 14.8795 6.50692 14.2882 6.47984C13.6959 6.45288 13.5073 6.44629 11.9986 6.44629H12.0003ZM11.5021 7.44712C11.65 7.44688 11.815 7.44712 12.0003 7.44712C13.4831 7.44712 13.6588 7.45244 14.2444 7.47905C14.7859 7.50381 15.0797 7.59429 15.2755 7.67031C15.5347 7.77097 15.7194 7.8913 15.9137 8.08568C16.1081 8.28006 16.2284 8.46518 16.3293 8.72435C16.4053 8.91989 16.4959 9.21378 16.5205 9.75526C16.5472 10.3407 16.5529 10.5166 16.5529 11.9987C16.5529 13.4809 16.5472 13.6568 16.5205 14.2422C16.4958 14.7837 16.4053 15.0776 16.3293 15.2731C16.2286 15.5323 16.1081 15.7168 15.9137 15.9111C15.7193 16.1055 15.5348 16.2258 15.2755 16.3265C15.08 16.4028 14.7859 16.4931 14.2444 16.5178C13.659 16.5445 13.4831 16.5502 12.0003 16.5502C10.5174 16.5502 10.3416 16.5445 9.75621 16.5178C9.21473 16.4929 8.92086 16.4024 8.72498 16.3264C8.46581 16.2257 8.2807 16.1054 8.08632 15.911C7.89195 15.7166 7.77162 15.5319 7.67073 15.2727C7.59472 15.0771 7.50412 14.7832 7.47948 14.2417C7.45287 13.6563 7.44755 13.4804 7.44755 11.9973C7.44755 10.5143 7.45287 10.3393 7.47948 9.75388C7.50424 9.21239 7.59472 8.9185 7.67073 8.72274C7.77139 8.46356 7.89195 8.27844 8.08632 8.08406C8.2807 7.88968 8.46581 7.76935 8.72498 7.66845C8.92074 7.59209 9.21473 7.50184 9.75621 7.47697C10.2685 7.45383 10.4671 7.44688 11.5021 7.44573V7.44712ZM14.9647 8.36926C14.5968 8.36926 14.2983 8.66743 14.2983 9.03548C14.2983 9.40341 14.5968 9.70193 14.9647 9.70193C15.3327 9.70193 15.6312 9.40341 15.6312 9.03548C15.6312 8.66755 15.3327 8.36903 14.9647 8.36903V8.36926ZM12.0003 9.14794C10.4253 9.14794 9.14832 10.425 9.14832 12C9.14832 13.5751 10.4253 14.8515 12.0003 14.8515C13.5753 14.8515 14.8518 13.5751 14.8518 12C14.8518 10.425 13.5752 9.14794 12.0002 9.14794H12.0003ZM12.0003 10.1488C13.0226 10.1488 13.8515 10.9775 13.8515 12C13.8515 13.0224 13.0226 13.8512 12.0003 13.8512C10.9779 13.8512 10.1491 13.0224 10.1491 12C10.1491 10.9775 10.9779 10.1488 12.0003 10.1488Z" fill="#838888"/>
</svg>
