<svg width="20" height="20" viewBox="0 0 20 20" fill="none" xmlns="http://www.w3.org/2000/svg">
<g id="Iconly/Bold/Category">
<g id="Category">
<path id="Category_2" fill-rule="evenodd" clip-rule="evenodd" d="M3.78341 1.66666H6.60008C7.77508 1.66666 8.71675 2.62499 8.71675 3.80082V6.64166C8.71675 7.82499 7.77508 8.77499 6.60008 8.77499H3.78341C2.61675 8.77499 1.66675 7.82499 1.66675 6.64166V3.80082C1.66675 2.62499 2.61675 1.66666 3.78341 1.66666ZM3.78341 11.2247H6.60008C7.77508 11.2247 8.71675 12.1756 8.71675 13.3589V16.1997C8.71675 17.3747 7.77508 18.3331 6.60008 18.3331H3.78341C2.61675 18.3331 1.66675 17.3747 1.66675 16.1997V13.3589C1.66675 12.1756 2.61675 11.2247 3.78341 11.2247ZM16.2168 1.66666H13.4002C12.2252 1.66666 11.2835 2.62499 11.2835 3.80082V6.64166C11.2835 7.82499 12.2252 8.77499 13.4002 8.77499H16.2168C17.3835 8.77499 18.3335 7.82499 18.3335 6.64166V3.80082C18.3335 2.62499 17.3835 1.66666 16.2168 1.66666ZM13.4002 11.2247H16.2168C17.3835 11.2247 18.3335 12.1756 18.3335 13.3589V16.1997C18.3335 17.3747 17.3835 18.3331 16.2168 18.3331H13.4002C12.2252 18.3331 11.2835 17.3747 11.2835 16.1997V13.3589C11.2835 12.1756 12.2252 11.2247 13.4002 11.2247Z" fill="#2F3367"/>
</g>
</g>
</svg>
