<svg width="24" height="24" viewBox="0 0 24 24" fill="none" xmlns="http://www.w3.org/2000/svg">
<circle cx="12" cy="12" r="12" fill="white"/>
<path fill-rule="evenodd" clip-rule="evenodd" d="M16.2391 10.1393C16.2428 10.2347 16.244 10.3301 16.244 10.4255C16.244 13.3176 14.2096 16.6563 10.4892 16.6563C9.34643 16.6563 8.28377 16.2921 7.38843 15.6721C7.5467 15.6894 7.70743 15.7024 7.87063 15.7024C8.81818 15.7024 9.69092 15.3512 10.3832 14.7615C9.49812 14.7485 8.75077 14.1111 8.49302 13.2439C8.61676 13.2699 8.74418 13.2829 8.8745 13.2829C9.05825 13.2829 9.23666 13.2569 9.40767 13.2049C8.4815 13.0055 7.78389 12.1209 7.78389 11.0586C7.78389 11.0456 7.78389 11.0412 7.78389 11.0326C8.05685 11.193 8.36927 11.2927 8.70102 11.3057C8.15757 10.9111 7.80033 10.239 7.80033 9.48025C7.80033 9.08134 7.89981 8.70409 8.07493 8.37889C9.07223 9.7057 10.5632 10.5773 12.2442 10.6683C12.2096 10.5079 12.192 10.3388 12.192 10.1697C12.192 8.95997 13.0976 7.98001 14.2149 7.98001C14.7966 7.98001 15.322 8.24454 15.6907 8.66947C16.1523 8.57408 16.5848 8.39198 16.9762 8.14049C16.8245 8.65214 16.5042 9.08132 16.0858 9.35015C16.4952 9.29812 16.8857 9.18113 17.2479 9.00769C16.9762 9.44563 16.6341 9.83147 16.2391 10.1393Z" fill="#848888"/>
</svg>
